# xmcd
#
# Track frame offsets:
# 150
# 15905
# 37940
# 57309
# 82448
# 106777
# 130691
# 155087
# 171966
# 191353
# 209859
# 225411
# 242661
# 264021
#
# Disc length: 4123 seconds
#
#
# Revision: 0
# Processed by: cddbd v1.4PL0 Copyright (c) Steve Scherf et al.
# Submitted via: FreeRIP 2.35 
#
DISCID=b110190e
DTITLE=GRUP ANILAR - SIKI SIKI SAK SAK
DYEAR=2003
DGENRE=www.aslanmuzik.com
TTITLE0=KILIBIK
TTITLE1=SIKI SIKI SAK SAK
TTITLE2=ANILAR
TTITLE3=SASKIN
TTITLE4=YERINE SEVEMEM
TTITLE5=KARGÖZLÜM
TTITLE6=ANNEM
TTITLE7=SEKER ALDIM
TTITLE8=TARIFI YOK
TTITLE9=UF AMAN BE
TTITLE10=GELIVER
TTITLE11=CILLI BOM
TTITLE12=HADI KIZ
TTITLE13=ANILAR HALAYI
EXTD=www.aslanmuzik.com
EXTT0=
EXTT1=
EXTT2=
EXTT3=
EXTT4=
EXTT5=
EXTT6=
EXTT7=
EXTT8=
EXTT9=
EXTT10=
EXTT11=
EXTT12=
EXTT13=
PLAYORDER=
